<svg width="29" height="27" viewBox="0 0 29 27" fill="none" xmlns="http://www.w3.org/2000/svg">
<path d="M1.03571 21.4922H27.9643C28.5363 21.4922 29 21.9539 29 22.5234V25.1016C29 25.6711 28.5363 26.1328 27.9643 26.1328H1.03571C0.463676 26.1328 0 25.6711 0 25.1016V22.5234C0 21.9539 0.463676 21.4922 1.03571 21.4922ZM1.03571 11.1797H27.9643C28.5363 11.1797 29 11.6414 29 12.2109V14.7891C29 15.3586 28.5363 15.8203 27.9643 15.8203H1.03571C0.463676 15.8203 0 15.3586 0 14.7891V12.2109C0 11.6414 0.463676 11.1797 1.03571 11.1797ZM1.03571 0.867188H27.9643C28.5363 0.867188 29 1.32887 29 1.89844V4.47656C29 5.04613 28.5363 5.50781 27.9643 5.50781H1.03571C0.463676 5.50781 0 5.04613 0 4.47656V1.89844C0 1.32887 0.463676 0.867188 1.03571 0.867188Z" fill="#007AFF"/>
</svg>
