<svg width="28" height="28" viewBox="0 0 28 28" fill="none" xmlns="http://www.w3.org/2000/svg">
<g clip-path="url(#clip0)">
<path d="M15.8916 10.5C14.788 10.5 10.0499 10.6083 7 15.2004V10.5C7 7.60484 4.64516 5.25 1.75 5.25C0.783672 5.25 0 6.03367 0 7C0 7.96633 0.783672 8.75 1.75 8.75C2.71469 8.75 3.5 9.53531 3.5 10.5V24.5C3.5 26.4305 5.06953 28 7 28H16.625C17.1084 28 17.5 27.6084 17.5 27.125V26.25C17.5 25.2837 16.7163 24.5 15.75 24.5H14L21 19.25V27.125C21 27.6084 21.3916 28 21.875 28H23.625C24.1084 28 24.5 27.6084 24.5 27.125V15.8517C23.9373 15.9977 23.3576 16.1 22.75 16.1C19.3698 16.1 16.5419 13.691 15.8916 10.5ZM24.5 5.25H21L17.5 1.75V9.1C17.5 11.9995 19.8505 14.35 22.75 14.35C25.6495 14.35 28 11.9995 28 9.1V1.75L24.5 5.25ZM20.5625 9.625C20.0791 9.625 19.6875 9.23344 19.6875 8.75C19.6875 8.26656 20.0791 7.875 20.5625 7.875C21.0459 7.875 21.4375 8.26656 21.4375 8.75C21.4375 9.23344 21.0459 9.625 20.5625 9.625ZM24.9375 9.625C24.4541 9.625 24.0625 9.23344 24.0625 8.75C24.0625 8.26656 24.4541 7.875 24.9375 7.875C25.4209 7.875 25.8125 8.26656 25.8125 8.75C25.8125 9.23344 25.4209 9.625 24.9375 9.625Z" fill="#007AFF"/>
</g>
<defs>
<clipPath id="clip0">
<rect width="28" height="28" fill="white"/>
</clipPath>
</defs>
</svg>
