<svg width="29" height="33" viewBox="0 0 29 33" fill="none" xmlns="http://www.w3.org/2000/svg">
<path d="M1.03571 24.4922H27.9643C28.5363 24.4922 29 24.9539 29 25.5234V28.1016C29 28.6711 28.5363 29.1328 27.9643 29.1328H1.03571C0.463676 29.1328 0 28.6711 0 28.1016V25.5234C0 24.9539 0.463676 24.4922 1.03571 24.4922ZM1.03571 14.1797H27.9643C28.5363 14.1797 29 14.6414 29 15.2109V17.7891C29 18.3586 28.5363 18.8203 27.9643 18.8203H1.03571C0.463676 18.8203 0 18.3586 0 17.7891V15.2109C0 14.6414 0.463676 14.1797 1.03571 14.1797ZM1.03571 3.86719H27.9643C28.5363 3.86719 29 4.32887 29 4.89844V7.47656C29 8.04613 28.5363 8.50781 27.9643 8.50781H1.03571C0.463676 8.50781 0 8.04613 0 7.47656V4.89844C0 4.32887 0.463676 3.86719 1.03571 3.86719Z" fill="#007AFF"/>
</svg>
